<?xml version="1.0" encoding="iso-8859-1"?>
<!-- Uploaded to: SVG Repo, www.svgrepo.com, Generator: SVG Repo Mixer Tools -->
<!DOCTYPE svg PUBLIC "-//W3C//DTD SVG 1.1//EN" "http://www.w3.org/Graphics/SVG/1.1/DTD/svg11.dtd">
<svg height="800px" width="800px" version="1.1" id="Capa_1" xmlns="http://www.w3.org/2000/svg" xmlns:xlink="http://www.w3.org/1999/xlink" 
	 viewBox="0 0 211.498 211.498" xml:space="preserve">
<g>
	<g>
		<polygon style="fill:#3EAD26;" points="62.178,115.218 78.183,98.219 85.627,113.946 93.071,98.219 109.076,115.218 
			129.04,158.109 85.694,158.109 85.56,158.109 42.214,158.109 		"/>
		<polygon style="fill:#EBFBFC;" points="62.178,115.218 85.56,64.984 85.56,64.695 85.627,64.84 85.694,64.695 85.694,64.984 
			109.076,115.218 93.071,98.219 85.694,113.803 85.694,114.088 85.627,113.946 85.56,114.088 85.56,113.803 78.183,98.219 		"/>
		<polygon style="opacity:0.2;fill:#484E4E;" points="85.627,64.84 85.694,64.695 85.694,64.984 109.076,115.218 129.04,158.109 
			85.694,158.109 85.627,158.109 		"/>
	</g>
	<g>
		<polygon style="fill:#299113;" points="125.37,124.974 138.285,111.844 144.292,123.992 150.299,111.844 163.215,124.974 
			179.327,158.109 144.347,158.109 144.238,158.109 109.258,158.109 		"/>
		<polygon style="fill:#EBFBFC;" points="125.37,124.974 144.238,86.169 144.238,85.945 144.292,86.057 144.347,85.945 
			144.347,86.169 163.215,124.974 150.299,111.844 144.347,123.883 144.347,124.102 144.292,123.992 144.238,124.102 
			144.238,123.883 138.285,111.844 		"/>
		<polygon style="opacity:0.2;fill:#484E4E;" points="144.292,86.057 144.347,85.945 144.347,86.169 163.215,124.974 
			179.327,158.109 144.347,158.109 144.292,158.109 		"/>
	</g>
	<g>
		<polygon style="fill:#299113;" points="15.777,132.48 28.425,122.323 34.308,131.719 40.191,122.323 52.839,132.48 
			68.616,158.109 34.361,158.109 34.255,158.109 0,158.109 		"/>
		<polygon style="fill:#EBFBFC;" points="15.777,132.48 34.255,102.465 34.255,102.291 34.308,102.378 34.361,102.291 
			34.361,102.465 52.839,132.48 40.191,122.323 34.361,131.635 34.361,131.805 34.308,131.72 34.255,131.805 34.255,131.635 
			28.425,122.323 		"/>
		<polygon style="opacity:0.2;fill:#484E4E;" points="34.308,102.378 34.361,102.291 34.361,102.465 52.839,132.48 68.616,158.109 
			34.361,158.109 34.308,158.109 		"/>
	</g>
	<g>
		<polygon style="fill:#3EAD26;" points="171.094,135.874 180.766,127.062 185.264,135.215 189.762,127.062 199.434,135.874 
			211.498,158.109 185.305,158.109 185.223,158.109 159.031,158.109 		"/>
		<polygon style="fill:#EBFBFC;" points="171.094,135.874 185.223,109.834 185.223,109.683 185.264,109.759 185.305,109.683 
			185.305,109.834 199.434,135.874 189.762,127.062 185.305,135.141 185.305,135.289 185.264,135.215 185.223,135.289 
			185.223,135.141 180.766,127.062 		"/>
		<polygon style="opacity:0.2;fill:#484E4E;" points="185.264,109.759 185.305,109.683 185.305,109.834 199.434,135.874 
			211.498,158.109 185.305,158.109 185.264,158.109 		"/>
	</g>
	<path style="fill:#FFFFFF;" d="M207.317,95.389c0.069-0.244,0.108-0.501,0.108-0.767c0-1.552-1.259-2.811-2.81-2.811
		c-1.127,0-2.096,0.665-2.544,1.622c-0.377-1.94-2.083-3.405-4.134-3.405c-2.326,0-4.212,1.886-4.212,4.212
		c0,0.576,0.117,1.126,0.326,1.626c-1.27,0.749-2.125,2.127-2.125,3.708c0,2.378,1.928,4.305,4.306,4.305h10.095
		c2.378,0,4.305-1.927,4.305-4.305C210.631,97.539,209.216,95.837,207.317,95.389z"/>
	<path style="fill:#CAFCF8;" d="M159.05,62.793c0.121-0.428,0.19-0.878,0.19-1.345c0-2.723-2.207-4.931-4.931-4.931
		c-1.977,0-3.678,1.167-4.464,2.846c-0.66-3.403-3.654-5.975-7.251-5.975c-4.081,0-7.39,3.309-7.39,7.39
		c0,1.012,0.204,1.976,0.572,2.854c-2.229,1.313-3.729,3.731-3.729,6.505c0,4.172,3.381,7.553,7.553,7.553h17.712
		c4.171,0,7.553-3.381,7.553-7.553C164.866,66.564,162.382,63.579,159.05,62.793z"/>
	<path style="fill:#CAFCF8;" d="M113.367,83.361c0.113-0.402,0.179-0.826,0.179-1.265c0-2.563-2.077-4.641-4.64-4.641
		c-1.86,0-3.461,1.098-4.201,2.678c-0.622-3.203-3.439-5.622-6.824-5.622c-3.84,0-6.954,3.113-6.954,6.954
		c0,0.952,0.192,1.858,0.539,2.686c-2.097,1.235-3.508,3.511-3.508,6.121c0,3.925,3.182,7.106,7.107,7.106h16.667
		c3.925,0,7.106-3.182,7.106-7.106C118.838,86.91,116.502,84.1,113.367,83.361z"/>
	<circle style="fill:#FFCB27;" cx="31.87" cy="75.839" r="10.372"/>
	<path style="fill:#CAFCF8;" d="M28.163,83.314c0.096-0.34,0.151-0.696,0.151-1.067c0-2.161-1.753-3.914-3.914-3.914
		c-1.569,0-2.919,0.926-3.543,2.26c-0.524-2.702-2.9-4.743-5.756-4.743c-3.24,0-5.866,2.626-5.866,5.866
		c0,0.803,0.162,1.567,0.454,2.265c-1.769,1.043-2.96,2.962-2.96,5.163c0,3.312,2.684,5.996,5.996,5.996h14.059
		c3.311,0,5.995-2.685,5.995-5.996C32.779,86.308,30.808,83.938,28.163,83.314z"/>
</g>
</svg>